<?xml version="1.0" standalone="no"?>
<!DOCTYPE svg PUBLIC "-//W3C//DTD SVG 20010904//EN"
 "http://www.w3.org/TR/2001/REC-SVG-20010904/DTD/svg10.dtd">
<svg version="1.0" xmlns="http://www.w3.org/2000/svg"
 width="300.000000pt" height="214.000000pt" viewBox="0 0 300.000000 214.000000"
 preserveAspectRatio="xMidYMid meet">
<metadata>
Created by potrace 1.10, written by Peter Selinger 2001-2011
</metadata>
<g transform="translate(0.000000,214.000000) scale(0.100000,-0.100000)"
fill="#000000" stroke="none">
<path d="M1328 1949 l-28 -21 0 -859 0 -859 201 0 c187 0 203 1 230 21 l29 20
0 860 0 859 -202 0 c-189 -1 -205 -2 -230 -21z m32 -847 l0 -849 -25 -11 -25
-11 0 839 c0 825 1 841 20 860 11 11 22 20 25 20 3 0 5 -382 5 -848z m351 828
c19 -11 19 -26 19 -826 -1 -448 -4 -822 -7 -830 -4 -11 -37 -14 -179 -14
l-174 0 0 833 c0 459 3 837 7 840 11 11 313 8 334 -3z m5 -1695 c-16 -12 -58
-15 -205 -15 -165 0 -183 2 -165 15 15 11 57 14 204 14 165 0 183 -1 166 -14z"/>
</g>
</svg>
